<mxfile host="app.diagrams.net" modified="2024-05-09T16:39:03.033Z" agent="Mozilla/5.0 (Windows NT 10.0; Win64; x64) AppleWebKit/537.36 (KHTML, like Gecko) Chrome/123.0.0.0 Safari/537.36 OPR/109.0.0.0" etag="QhP-Umg6HZ-UQ5gyaK0T" version="24.3.1" type="device">
  <diagram name="Сторінка-1" id="tqriob2lif1LaQM3V3DP">
    <mxGraphModel dx="1009" dy="542" grid="1" gridSize="10" guides="1" tooltips="1" connect="1" arrows="1" fold="1" page="1" pageScale="1" pageWidth="827" pageHeight="1169" math="0" shadow="0">
      <root>
        <mxCell id="0" />
        <mxCell id="1" parent="0" />
        <mxCell id="m9fn2igRQ0QkA1WiTa2k-2" value="&lt;b&gt;&lt;font style=&quot;font-size: 20px;&quot;&gt;S&lt;/font&gt;&lt;/b&gt;" style="rounded=1;whiteSpace=wrap;html=1;" vertex="1" parent="1">
          <mxGeometry x="110" y="290" width="120" height="60" as="geometry" />
        </mxCell>
        <mxCell id="m9fn2igRQ0QkA1WiTa2k-3" value="&lt;b&gt;&lt;font style=&quot;font-size: 20px;&quot;&gt;I&lt;/font&gt;&lt;/b&gt;" style="rounded=1;whiteSpace=wrap;html=1;" vertex="1" parent="1">
          <mxGeometry x="340" y="290" width="120" height="60" as="geometry" />
        </mxCell>
        <mxCell id="m9fn2igRQ0QkA1WiTa2k-4" value="&lt;b&gt;&lt;font style=&quot;font-size: 20px;&quot;&gt;R&lt;/font&gt;&lt;/b&gt;" style="rounded=1;whiteSpace=wrap;html=1;" vertex="1" parent="1">
          <mxGeometry x="570" y="290" width="120" height="60" as="geometry" />
        </mxCell>
        <mxCell id="m9fn2igRQ0QkA1WiTa2k-5" value="" style="shape=flexArrow;endArrow=classic;html=1;rounded=0;exitX=1;exitY=0.5;exitDx=0;exitDy=0;entryX=0;entryY=0.5;entryDx=0;entryDy=0;" edge="1" parent="1" source="m9fn2igRQ0QkA1WiTa2k-2" target="m9fn2igRQ0QkA1WiTa2k-3">
          <mxGeometry width="50" height="50" relative="1" as="geometry">
            <mxPoint x="390" y="200" as="sourcePoint" />
            <mxPoint x="440" y="150" as="targetPoint" />
          </mxGeometry>
        </mxCell>
        <mxCell id="m9fn2igRQ0QkA1WiTa2k-7" value="" style="shape=flexArrow;endArrow=classic;html=1;rounded=0;exitX=1;exitY=0.5;exitDx=0;exitDy=0;entryX=0;entryY=0.5;entryDx=0;entryDy=0;" edge="1" parent="1" source="m9fn2igRQ0QkA1WiTa2k-3" target="m9fn2igRQ0QkA1WiTa2k-4">
          <mxGeometry width="50" height="50" relative="1" as="geometry">
            <mxPoint x="240" y="330" as="sourcePoint" />
            <mxPoint x="350" y="330" as="targetPoint" />
          </mxGeometry>
        </mxCell>
        <mxCell id="m9fn2igRQ0QkA1WiTa2k-8" value="" style="shape=flexArrow;endArrow=classic;html=1;rounded=0;entryX=0.5;entryY=0;entryDx=0;entryDy=0;" edge="1" parent="1" target="m9fn2igRQ0QkA1WiTa2k-2">
          <mxGeometry width="50" height="50" relative="1" as="geometry">
            <mxPoint x="170" y="180" as="sourcePoint" />
            <mxPoint x="360" y="340" as="targetPoint" />
          </mxGeometry>
        </mxCell>
        <mxCell id="m9fn2igRQ0QkA1WiTa2k-9" value="" style="shape=flexArrow;endArrow=classic;html=1;rounded=0;exitX=0.5;exitY=1;exitDx=0;exitDy=0;" edge="1" parent="1" source="m9fn2igRQ0QkA1WiTa2k-2">
          <mxGeometry width="50" height="50" relative="1" as="geometry">
            <mxPoint x="160" y="370" as="sourcePoint" />
            <mxPoint x="170" y="440" as="targetPoint" />
          </mxGeometry>
        </mxCell>
        <mxCell id="m9fn2igRQ0QkA1WiTa2k-10" value="" style="shape=flexArrow;endArrow=classic;html=1;rounded=0;" edge="1" parent="1">
          <mxGeometry width="50" height="50" relative="1" as="geometry">
            <mxPoint x="399.5" y="350" as="sourcePoint" />
            <mxPoint x="400" y="440" as="targetPoint" />
          </mxGeometry>
        </mxCell>
        <mxCell id="m9fn2igRQ0QkA1WiTa2k-11" value="" style="shape=flexArrow;endArrow=classic;html=1;rounded=0;" edge="1" parent="1">
          <mxGeometry width="50" height="50" relative="1" as="geometry">
            <mxPoint x="629.5" y="350" as="sourcePoint" />
            <mxPoint x="630" y="440" as="targetPoint" />
          </mxGeometry>
        </mxCell>
        <mxCell id="m9fn2igRQ0QkA1WiTa2k-12" value="&lt;font style=&quot;font-size: 15px;&quot;&gt;N, S&lt;sub&gt;0&lt;/sub&gt;, I&lt;sub&gt;0&lt;/sub&gt;, R&lt;sub&gt;0&lt;/sub&gt;&lt;/font&gt;" style="text;html=1;align=center;verticalAlign=middle;resizable=0;points=[];autosize=1;strokeColor=none;fillColor=none;" vertex="1" parent="1">
          <mxGeometry x="170" y="210" width="110" height="30" as="geometry" />
        </mxCell>
        <mxCell id="m9fn2igRQ0QkA1WiTa2k-13" value="&lt;span id=&quot;docs-internal-guid-49b22cad-7fff-c440-dc92-981bf6a9e502&quot;&gt;&lt;span style=&quot;font-size: 14pt; font-family: &amp;quot;Times New Roman&amp;quot;, serif; background-color: rgb(255, 255, 255); font-style: italic; font-variant-numeric: normal; font-variant-east-asian: normal; font-variant-alternates: normal; font-variant-position: normal; vertical-align: baseline; white-space: pre-wrap;&quot;&gt;β&lt;/span&gt;&lt;/span&gt;" style="text;html=1;align=center;verticalAlign=middle;resizable=0;points=[];autosize=1;strokeColor=none;fillColor=none;" vertex="1" parent="1">
          <mxGeometry x="260" y="263" width="30" height="40" as="geometry" />
        </mxCell>
        <mxCell id="m9fn2igRQ0QkA1WiTa2k-14" value="&lt;span id=&quot;docs-internal-guid-90824839-7fff-fbbb-f591-9c60c4c6d50f&quot;&gt;&lt;span style=&quot;font-size: 14pt; font-family: &amp;quot;Times New Roman&amp;quot;, serif; background-color: rgb(255, 255, 255); font-style: italic; font-variant-numeric: normal; font-variant-east-asian: normal; font-variant-alternates: normal; font-variant-position: normal; vertical-align: baseline; white-space: pre-wrap;&quot;&gt;μ&lt;/span&gt;&lt;span style=&quot;font-size: 14pt; font-family: &amp;quot;Times New Roman&amp;quot;, serif; background-color: rgb(255, 255, 255); font-variant-numeric: normal; font-variant-east-asian: normal; font-variant-alternates: normal; font-variant-position: normal; vertical-align: baseline; white-space: pre-wrap;&quot;&gt; &lt;/span&gt;&lt;/span&gt;" style="text;html=1;align=center;verticalAlign=middle;resizable=0;points=[];autosize=1;strokeColor=none;fillColor=none;" vertex="1" parent="1">
          <mxGeometry x="490" y="263" width="40" height="40" as="geometry" />
        </mxCell>
        <mxCell id="m9fn2igRQ0QkA1WiTa2k-15" value="&lt;b style=&quot;text-wrap: wrap;&quot;&gt;&lt;font style=&quot;font-size: 20px;&quot;&gt;S&lt;sub&gt;i&lt;/sub&gt;&lt;/font&gt;&lt;/b&gt;" style="text;html=1;align=center;verticalAlign=middle;resizable=0;points=[];autosize=1;strokeColor=none;fillColor=none;" vertex="1" parent="1">
          <mxGeometry x="190" y="403" width="40" height="40" as="geometry" />
        </mxCell>
        <mxCell id="m9fn2igRQ0QkA1WiTa2k-16" value="&lt;span style=&quot;font-size: 20px; text-wrap: wrap;&quot;&gt;&lt;b&gt;I&lt;sub&gt;i&lt;/sub&gt;&lt;/b&gt;&lt;/span&gt;" style="text;html=1;align=center;verticalAlign=middle;resizable=0;points=[];autosize=1;strokeColor=none;fillColor=none;" vertex="1" parent="1">
          <mxGeometry x="435" y="403" width="30" height="40" as="geometry" />
        </mxCell>
        <mxCell id="m9fn2igRQ0QkA1WiTa2k-17" value="&lt;span style=&quot;font-size: 16.6667px; text-wrap: wrap;&quot;&gt;&lt;b&gt;R&lt;sub&gt;i&lt;/sub&gt;&lt;/b&gt;&lt;/span&gt;" style="text;html=1;align=center;verticalAlign=middle;resizable=0;points=[];autosize=1;strokeColor=none;fillColor=none;" vertex="1" parent="1">
          <mxGeometry x="640" y="403" width="40" height="40" as="geometry" />
        </mxCell>
      </root>
    </mxGraphModel>
  </diagram>
</mxfile>
